<?xml version="1.0" encoding="UTF-8" standalone="no"?>
<!DOCTYPE svg PUBLIC "-//W3C//DTD SVG 1.1//EN" "http://www.w3.org/Graphics/SVG/1.1/DTD/svg11.dtd">
<!-- Created with Vectornator (http://vectornator.io/) -->
<svg height="100%" stroke-miterlimit="10" style="fill-rule:nonzero;clip-rule:evenodd;stroke-linecap:round;stroke-linejoin:round;" version="1.1" viewBox="0 0 3653.08 4179.05" width="100%" xml:space="preserve" xmlns="http://www.w3.org/2000/svg" xmlns:xlink="http://www.w3.org/1999/xlink">
<defs/>
<clipPath id="ArtboardFrame">
<rect height="4179.05" width="3653.08" x="0" y="0"/>
</clipPath>
<g clip-path="url(#ArtboardFrame)" id="Ebene-1">
<g opacity="1">
<g opacity="1">
<path d="M3004.76 680.338L1576.38 2106.67L2981.98 3516.89L2596.53 3516.89L1390.09 2300.56L1153.35 2531.08L1153.35 3516.89L879.679 3516.89L879.679 680.338L1153.35 680.338L1153.35 2143.36L2611.42 680.338L3004.76 680.338" fill="#ffffff" fill-rule="nonzero" opacity="1" stroke="none"/>
<path d="M3653.08 4179.05L236.985 4176.5C0 4179.04 3.71799 3995.07 3.71799 3995.07L0 546.89L257.082 546.89L257.082 3947.25L3653.08 3947.25" fill="#ffffff" fill-rule="nonzero" opacity="1" stroke="none"/>
<path d="M0 0L3416.75 0.474893C3653.74-2.06605 3650 181.901 3650 181.901L3653.07 3504.88L3396.67 3290.6L3396.67 229.726L1.11748 229.726" fill="#ffffff" fill-rule="nonzero" opacity="1" stroke="none"/>
<path d="M2600.17 3283.08L3653.07 3283.08L3653.08 3516.89L2600.17 3516.89L2600.17 3283.08Z" fill="#ffffff" fill-rule="nonzero" opacity="1" stroke="none"/>
</g>
</g>
</g>
</svg>
