<?xml version="1.0" encoding="UTF-8" standalone="no"?>
<!DOCTYPE svg PUBLIC "-//W3C//DTD SVG 1.1//EN" "http://www.w3.org/Graphics/SVG/1.1/DTD/svg11.dtd">
<!-- Created with Vectornator (http://vectornator.io/) -->
<svg height="100%" stroke-miterlimit="10" style="fill-rule:nonzero;clip-rule:evenodd;stroke-linecap:round;stroke-linejoin:round;" version="1.1" viewBox="0 0 7650 1315.93" width="100%" xml:space="preserve" xmlns="http://www.w3.org/2000/svg" xmlns:xlink="http://www.w3.org/1999/xlink">
<defs/>
<g id="Ebene-1">
<g opacity="1">
<path d="M1046.53 618.528C1036.07 528.241 996.895 452.674 929.002 391.77C861.083 330.89 781.714 300.41 690.814 300.41C599.945 300.41 520.266 330.607 451.862 390.955C383.433 451.349 343.978 527.2 333.55 618.528L1046.53 618.528ZM1135.84 704.709L333.55 704.709C343.978 795.585 383.154 871.074 451.074 931.138C518.967 991.228 598.898 1021.25 690.814 1021.25C825.584 1021.25 932.648 955.42 1012.07 823.791L1087.29 867.429C991.154 1027.44 859.02 1107.43 690.814 1107.43C566.483 1107.43 460.996 1064.09 374.279 977.355C287.566 890.663 244.232 785.151 244.232 660.814C244.232 536.534 287.566 431.017 374.279 344.306C460.996 257.593 566.483 214.233 690.814 214.233C814.077 214.233 919.058 257.999 1005.8 345.502C1092.49 433.008 1135.84 538.598 1135.84 662.243L1135.84 704.709" fill="#ffffff" fill-rule="nonzero" opacity="1" stroke="none"/>
<path d="M2008.66 661.609C2008.66 561.12 1973.92 475.805 1904.45 405.643C1834.97 335.507 1750.09 300.41 1649.81 300.41C1549.52 300.41 1464.38 335.507 1394.41 405.643C1324.4 475.805 1289.41 561.12 1289.41 661.609C1289.41 762.123 1324.4 847.181 1394.41 916.806C1464.38 986.458 1549.52 1021.25 1649.81 1021.25C1750.09 1021.25 1834.97 986.458 1904.45 916.806C1973.92 847.181 2008.66 762.123 2008.66 661.609ZM2094.84 660.814C2094.84 784.104 2051.48 889.363 1964.79 976.586C1878.06 1063.82 1773.08 1107.43 1649.81 1107.43C1525.48 1107.43 1419.99 1064.09 1333.28 977.355C1246.56 890.663 1203.22 785.151 1203.22 660.814C1203.22 536.534 1246.56 431.017 1333.28 344.306C1419.99 257.593 1525.48 214.233 1649.81 214.233C1773.08 214.233 1878.06 257.871 1964.79 345.069C2051.48 432.323 2094.84 537.576 2094.84 660.814" fill="#ffffff" fill-rule="nonzero" opacity="1" stroke="none"/>
<path d="M2915.96 1107.43L2829.75 1107.43L2829.75 592.999C2829.75 512.254 2801.55 443.313 2745.16 386.158C2688.74 329.028 2620.31 300.41 2539.86 300.41C2458.39 300.41 2389.44 328.744 2333.02 385.369C2276.61 442.014 2248.4 511.232 2248.4 592.999L2248.4 1107.43L2162.23 1107.43L2162.23 214.233L2248.4 214.233L2248.4 353.692C2323.62 260.728 2420.79 214.233 2539.86 214.233C2644.31 214.233 2733.12 251.213 2806.26 325.099C2879.36 399.01 2915.96 488.38 2915.96 593.205L2915.96 1107.43" fill="#ffffff" fill-rule="nonzero" opacity="1" stroke="none"/>
<path d="M4066.68 214.233L3616.9 663.368L4059.51 1107.43L3938.13 1107.43L3558.24 724.422L3483.69 797.009L3483.69 1107.43L3397.51 1107.43L3397.51 214.233L3483.69 214.233L3483.69 674.92L3942.82 214.233L4066.68 214.233" fill="#ffffff" fill-rule="nonzero" opacity="1" stroke="none"/>
<path d="M4806.25 459.456C4806.25 415.386 4791.11 377.871 4760.81 346.884C4730.51 315.919 4693.42 300.41 4649.56 300.41L4218.63 300.41L4218.63 616.951L4649.56 616.951C4693.42 616.951 4730.51 601.746 4760.81 571.297C4791.11 540.841 4806.25 503.578 4806.25 459.456ZM4949.59 1107.43L4828.18 1107.43L4427.06 703.126L4218.63 703.126L4218.63 1107.43L4132.46 1107.43L4132.46 214.233L4649.56 214.233C4716.4 214.233 4773.59 238.36 4821.14 286.562C4868.66 334.764 4892.43 392.403 4892.43 459.456C4892.43 526.561 4868.61 583.922 4820.97 631.613C4773.32 679.304 4716 703.126 4648.96 703.126L4548.43 703.126L4949.59 1107.43" fill="#ffffff" fill-rule="nonzero" opacity="1" stroke="none"/>
<path d="M5821.64 660.814C5821.64 561.146 5786.63 476.162 5716.64 405.875C5646.66 335.584 5562.03 300.41 5462.79 300.41C5363.53 300.41 5278.9 335.584 5208.95 405.875C5138.93 476.162 5103.94 561.146 5103.94 660.814C5103.94 761.561 5138.65 846.819 5208.16 916.6C5277.6 986.38 5362.51 1021.25 5462.79 1021.25C5563.07 1021.25 5647.93 986.38 5717.43 916.6C5786.88 846.819 5821.64 761.561 5821.64 660.814ZM5907.82 1107.43L5821.64 1107.43L5821.64 924.073C5732.84 1046.32 5613.22 1107.43 5462.79 1107.43C5338.46 1107.43 5233.23 1064.02 5147.05 977.149C5060.86 890.281 5017.77 784.563 5017.77 660.051C5017.77 536.555 5061.1 431.404 5147.8 344.533C5234.52 257.665 5339.5 214.233 5462.79 214.233C5613.22 214.233 5732.84 275.876 5821.64 399.14L5821.64 214.233L5907.82 214.233L5907.82 1107.43" fill="#ffffff" fill-rule="nonzero" opacity="1" stroke="none"/>
<path d="M7650 1315.93L74.6236 1315.13C0 1315.93 1.17075 1258 1.17075 1258L0 172.21L80.9518 172.21L80.9518 1242.94L7650 1242.94L7650 1315.93" fill="#ffffff" fill-rule="nonzero" opacity="1" stroke="none"/>
<path d="M0 0.00165127L7575.38 0.801762C7650 0.00165127 7648.82 57.9305 7648.82 57.9305L7649.79 1104.3L7569.05 1036.82L7569.05 72.99L0 72.99L0 0.00165127" fill="#ffffff" fill-rule="nonzero" opacity="1" stroke="none"/>
<path d="M6597.13 614.433C6493.71 586.175 6390.29 557.381 6286.85 528.076C6246.11 512.392 6225.75 479.39 6225.75 429.172C6225.75 406.139 6234.6 383.647 6252.38 361.66C6284.74 321.901 6342.2 301.978 6424.76 301.978C6568.91 301.978 6640.99 371.99 6640.99 511.959L6727.19 511.959C6727.19 314.526 6626.35 215.802 6424.76 215.802C6314.03 215.802 6234.09 246.153 6184.99 306.851C6154.69 343.5 6139.57 384.332 6139.57 429.321C6139.57 521.444 6178.75 581.1 6257.09 608.317C6357.38 638.663 6427.88 659.093 6468.63 669.551C6543.84 688.397 6592.94 704.086 6615.92 716.66C6668.15 744.918 6694.26 786.771 6694.26 842.27C6694.26 902.969 6667.1 949.03 6612.79 980.424C6577.14 1001.19 6533.87 1015.37 6484.76 1020.5L6087.34 1020.5L6087.34 614.603L6003.55 614.603L6003.55 1104.3L6087.34 1104.3L6087.34 1104.29L6440.16 1104.29C6451.42 1104.75 6463.21 1105.09 6476.54 1105.09C6563.24 1105.09 6607.04 1087.01 6667.65 1049.31C6742.85 1002.23 6780.45 933.166 6780.45 842.09C6780.45 736.372 6719.34 660.495 6597.13 614.433" fill="#ffffff" fill-rule="nonzero" opacity="1" stroke="none"/>
<path d="M7056.21 614.433C7159.63 586.175 7263.06 557.381 7366.48 528.076C7407.23 512.392 7427.59 479.39 7427.59 429.172C7427.59 406.139 7418.73 383.647 7400.96 361.66C7368.6 321.901 7311.14 301.978 7228.58 301.978C7084.43 301.978 7012.35 371.99 7012.35 511.959L6926.15 511.959C6926.15 314.526 7027 215.802 7228.58 215.802C7339.32 215.802 7419.25 246.153 7468.35 306.851C7498.65 343.5 7513.77 384.332 7513.77 429.321C7513.77 521.444 7474.6 581.1 7396.25 608.317C7295.96 638.663 7225.47 659.093 7184.71 669.551C7109.5 688.397 7060.4 704.086 7037.43 716.66C6985.19 744.918 6959.07 786.771 6959.07 842.27C6959.07 902.969 6986.24 949.03 7040.56 980.424C7076.2 1001.19 7119.47 1015.37 7168.59 1020.5L7566 1020.5L7566.57 73.7901L7611.72 73.7901L7649.79 1104.3L7566 1104.3L7566 1104.29L7213.19 1104.29C7201.92 1104.75 7190.12 1105.09 7176.8 1105.09C7090.11 1105.09 7046.3 1087.01 6985.7 1049.31C6910.49 1002.23 6872.89 933.166 6872.89 842.09C6872.89 736.372 6934.01 660.495 7056.21 614.433" fill="#ffffff" fill-rule="nonzero" opacity="1" stroke="none"/>
</g>
</g>
</svg>
